# xmcd
# Copyright (C) 1995-1998 Ti Kan
#
# Track frame offsets:
#       150
#       15960
#       38657
#       63190
#       87350
#       105065
#       122752
#       149130
#       181317
#       209997
#       228160
#       263487
#
# Disc length: 3872 seconds
#
# Revision: 2
# Processed by: cddbd v1.4PL0 Copyright (c) Steve Scherf et al.
# Submitted via: CD-Transfer v1.0
#
DISCID=990f1e0c
DTITLE=Blues Aholics - Live At Fricks Monti
DYEAR=2002
DGENRE=
TTITLE0=Cry Out The Blues
TTITLE1=Storm
TTITLE2=Gonna Miss My Love
TTITLE3=Foggy Morning
TTITLE4=Boom Boom
TTITLE5=Gospel Ship
TTITLE6=Proud Mary
TTITLE7=Need Your Love So Bad
TTITLE8=The Blues Overtook Me
TTITLE9=Oh Jeh Minee
TTITLE10=Natural Born Boogie
TTITLE11=Will The Circle
EXTD=
EXTT0=
EXTT1=
EXTT2=
EXTT3=
EXTT4=
EXTT5=
EXTT6=
EXTT7=
EXTT8=
EXTT9=
EXTT10=
EXTT11=
PLAYORDER=
